<svg width="2077" height="1186" viewBox="0 0 2077 1186" fill="none" xmlns="http://www.w3.org/2000/svg">
<path d="M1882.7 75.5C1882.7 239.2 1882.8 403 1882.8 566.7C1882.8 599.4 1882.8 632.1 1882.8 664.8C1882.8 795.8 1882.8 926.9 1882.7 1057.9C1755.9 1058.3 1629.1 1057.9 1502.3 1058.1C1154.8 1058.1 807.2 1058.1 459.7 1058.1C371.2 1058 282.7 1058.3 194.2 1057.9C194.1 730.4 194.2 403 194.2 75.5C475.6 75.5 757.1 75.4 1038.5 75.4C1319.9 75.5 1601.3 75.5 1882.7 75.5Z" fill="#B3B3B3"/>
<path d="M1037.9 41.2C1034.7 40.9 1034 36 1036.9 34.6C1038.9 33.6 1041.8 34.8 1042 37.2C1042.5 39.5 1040.2 41.8 1037.9 41.2Z" fill="#010101"/>
<path d="M1034.6 29C1035.8 28.4 1037.1 28.1 1038.4 28.1C1043.7 28.1 1048.9 32.9 1048.2 38.5C1048.1 43.5 1043.3 47.6 1038.6 47.6C1037.3 47.6 1035.9 47.3 1034.7 46.6C1027 43.9 1027.1 31.8 1034.6 29ZM1036.9 34.7C1034 36.1 1034.7 41 1037.9 41.3C1040.2 41.9 1042.4 39.6 1041.9 37.3C1041.7 34.9 1038.9 33.7 1036.9 34.7Z" fill="white"/>
<path d="M1923 885C1923 811.6 1922.9 738.2 1922.9 664.8V566.7C1922.9 482.7 1922.9 398.7 1922.9 314.8C1922.9 227.2 1922.9 139.6 1922.9 52C1923.1 32.8 1911.6 14.2 1894.4 5.80002C1887 2.00002 1878.7 0.200013 1870.5 0.200013C1860.2 0.200013 1850 0.200013 1839.8 0.200013C1572.7 0.200013 1305.5 0.200013 1038.4 0.200013C933.2 0.200013 827.9 0.200013 722.7 0.200013C627.2 0.200013 531.7 0.200013 436.2 0.200013C359.6 0.200013 283.1 0.200013 206.5 0.200013C196.6 0.100013 186.8 3.00002 178.3 8.10002C163.6 17.6 154 34.5 154.2 52.1V75.6C154.2 377.8 154.2 680 154.2 982.2C154.3 1031.9 154 1081.7 154.3 1131.4C276.7 1131.1 399.1 1131.4 521.6 1131.3C659.5 1131.2 797.3 1131.4 935.2 1131.2C945.6 1130.8 956 1131.1 966.3 1131C1024.9 1131.1 1083.4 1130.7 1142 1131.2C1402.4 1131.5 1662.8 1131.1 1923.2 1131.4C1922.8 1049.2 1923 967.1 1923 885ZM1882.8 664.8C1882.8 795.8 1882.8 926.9 1882.7 1057.9C1755.9 1058.3 1629.1 1057.9 1502.3 1058.1H459.7C371.2 1058 282.7 1058.3 194.2 1057.9C194.1 730.4 194.2 403 194.2 75.5C475.6 75.5 757.1 75.4 1038.5 75.4C1319.9 75.4 1601.3 75.4 1882.7 75.4C1882.7 239.1 1882.8 402.9 1882.8 566.6V664.8Z" fill="#333333"/>
<path d="M178.2 8.00001C186.7 2.90001 196.5 7.37538e-06 206.4 0.100007C283 0.100007 359.5 0.100007 436.1 0.100007C531.6 0.100007 627.1 0.100007 722.6 0.100007C827.8 0.100007 933.1 0.100007 1038.3 0.100007C1305.4 0.100007 1572.5 0.100007 1839.7 0.100007C1849.9 0.100007 1860.2 0.100007 1870.4 0.100007C1878.7 0.100007 1887 1.90001 1894.3 5.70001C1911.5 14.2 1923 32.8 1922.8 51.9C1922.9 139.5 1922.8 227.1 1922.8 314.7C1922.8 398.7 1922.8 482.7 1922.8 566.6C1922.8 599.3 1922.8 632 1922.8 664.7C1922.8 738.1 1922.8 811.5 1922.9 884.9C1922.9 967 1922.7 1049.1 1923 1131.2C1662.6 1130.9 1402.2 1131.3 1141.8 1131C1083.2 1130.5 1024.7 1130.9 966.1 1130.8C955.7 1130.9 945.3 1130.6 935 1131C797.1 1131.3 659.3 1131 521.4 1131.1C399 1131.2 276.6 1130.9 154.1 1131.2C153.8 1081.5 154.1 1031.7 154 982C154 679.8 154 377.6 154 75.4C154 67.6 154 59.7 154 51.9C153.9 34.4 163.6 17.5 178.2 8.00001Z" stroke="#333333" stroke-width="0.1158"/>
<path d="M194.2 75.5C194.2 403 194.2 730.4 194.2 1057.9C282.7 1058.3 371.2 1058 459.7 1058.1C807.2 1058.1 1154.8 1058.1 1502.3 1058.1C1629.1 1058 1755.9 1058.3 1882.7 1057.9C1882.7 926.9 1882.7 795.8 1882.8 664.8C1882.8 632.1 1882.8 599.4 1882.8 566.7C1882.8 403 1882.8 239.2 1882.7 75.5C1601.3 75.5 1319.9 75.5 1038.5 75.5C757.1 75.5 475.7 75.5 194.2 75.5Z" stroke="#333333" stroke-width="0.1158"/>
<path d="M1034.6 29C1035.8 28.4 1037.1 28.1 1038.4 28.1C1043.7 28.1 1048.9 32.9 1048.2 38.5C1048.1 43.5 1043.3 47.6 1038.6 47.6C1037.3 47.6 1035.9 47.3 1034.7 46.6C1027 43.9 1027.1 31.8 1034.6 29Z" stroke="white" stroke-width="0.1158"/>
<path d="M1036.9 34.7C1038.9 33.7 1041.8 34.9 1042 37.3C1042.5 39.5 1040.2 41.8 1038 41.3C1034.7 41 1034 36 1036.9 34.7Z" stroke="#010101" stroke-width="0.1158"/>
<path d="M1.9001 1132.1C12.0001 1131.1 22.2001 1131.8 32.3001 1131.6C72.9001 1131.4 113.6 1132 154.2 1131.3C276.6 1131 399 1131.3 521.5 1131.2C659.4 1131.1 797.2 1131.3 935.1 1131.1C935 1137 933.5 1144.1 937.9 1149C940.6 1152.2 945 1152.8 948.9 1152.8C1008.7 1152.7 1068.4 1152.7 1128.2 1152.8C1132.4 1152.8 1137.2 1152.1 1139.8 1148.4C1143.4 1143.4 1142.1 1136.8 1142 1131.1C1402.4 1131.4 1662.8 1131 1923.2 1131.3C1957.9 1132.2 1992.7 1131.1 2027.4 1131.8C2042.9 1133.8 2058.5 1132.2 2074.1 1133.1C2074.7 1141.3 2074.4 1149.4 2074 1157.6C2073.6 1160.7 2074.8 1163.5 2076.5 1166.1C2069.8 1163.8 2062.7 1164.6 2055.8 1164.6C1377.6 1164.6 699.5 1164.6 21.3001 1164.6C14.6001 1164.6 7.6001 1163.7 1.1001 1166.1C2.5001 1154.8 0.500101 1143.4 1.9001 1132.1ZM78.3001 1141.9C76.0001 1144.6 76.4001 1148.2 76.3001 1151.5C78.5001 1154.5 81.3001 1157.9 85.5001 1157.7C89.5001 1158.2 92.7001 1155.5 94.8001 1152.4L95.5001 1152.2C95.2001 1148.8 95.7001 1144.9 93.5001 1142C90.0001 1137.3 81.9001 1137.2 78.3001 1141.9ZM137.3 1141.6C134.4 1144.3 134.9 1148.6 134.7 1152.2L135.4 1152.4C138.8 1159 148.6 1159.6 152.7 1153.4L153.5 1153.3C153.6 1149.7 154.5 1145.7 152.3 1142.6C149.1 1137.6 141.1 1136.9 137.3 1141.6Z" fill="#F9F9F9" stroke="#F9F9F9" stroke-width="0.1158"/>
<path d="M935.1 1131.1C945.5 1130.7 955.9 1131 966.2 1130.9C1024.8 1131 1083.3 1130.6 1141.9 1131.1C1142 1136.8 1143.4 1143.4 1139.7 1148.4C1137.1 1152.1 1132.3 1152.8 1128.1 1152.8C1068.3 1152.7 1008.6 1152.7 948.8 1152.8C944.9 1152.8 940.5 1152.2 937.8 1149C933.5 1144.1 935 1137 935.1 1131.1Z" fill="#999999" stroke="#999999" stroke-width="0.1158"/>
<path d="M78.3 1141.9C81.9 1137.1 89.9 1137.2 93.5 1142C95.8 1144.9 95.3 1148.7 95.5 1152.2L94.8 1152.4C91.7 1153.1 88.6 1154.1 85.4 1154.2C82.2 1154 79.3 1152.6 76.3 1151.6C76.4 1148.2 76.1 1144.6 78.3 1141.9Z" fill="#B3B3B3" stroke="#B3B3B3" stroke-width="0.1158"/>
<path d="M137.3 1141.6C141.1 1136.9 149.1 1137.6 152.4 1142.6C154.6 1145.7 153.7 1149.7 153.6 1153.3L152.8 1153.4C147 1154.2 141.1 1154.2 135.5 1152.4L134.8 1152.2C134.9 1148.5 134.4 1144.3 137.3 1141.6Z" fill="#B3B3B3" stroke="#B3B3B3" stroke-width="0.1158"/>
<path d="M76.3 1151.5C79.3 1152.5 82.2 1154 85.4 1154.1C88.6 1154 91.7 1153 94.8 1152.3C92.7 1155.3 89.5 1158.1 85.5 1157.6C81.3 1157.9 78.5 1154.5 76.3 1151.5Z" fill="#4E4E4E" stroke="#4E4E4E" stroke-width="0.1158"/>
<path d="M135.4 1152.3C141 1154.1 146.9 1154 152.7 1153.3C148.7 1159.5 138.9 1158.9 135.4 1152.3Z" fill="#4F4F4F" stroke="#4F4F4F" stroke-width="0.1158"/>
<path d="M1 1166.1C7.5 1163.8 14.5 1164.7 21.2 1164.6C699.4 1164.6 1377.5 1164.6 2055.7 1164.6C2062.6 1164.6 2069.7 1163.8 2076.4 1166.1C2074.9 1174.8 2068.8 1182.2 2060.4 1185C1938.2 1185.4 1816 1185 1693.8 1185.2C1166.7 1185.2 639.7 1185.2 112.6 1185.2C80.6 1185.1 48.5 1185.5 16.5 1185C8.4 1182.1 1.6 1174.9 1 1166.1Z" fill="#B3B3B3" stroke="#B3B3B3" stroke-width="0.1158"/>
</svg>
